<?xml version="1.0" encoding="UTF-8" standalone="no"?>
<svg
   height="128"
   width="128"
   version="1.1"
   viewBox="0 0 128 128"
   id="svg6"
   sodipodi:docname="arch-logo.svg"
   inkscape:version="1.1 (c4e8f9ed74, 2021-05-24)"
   xmlns:inkscape="http://www.inkscape.org/namespaces/inkscape"
   xmlns:sodipodi="http://sodipodi.sourceforge.net/DTD/sodipodi-0.dtd"
   xmlns="http://www.w3.org/2000/svg"
   xmlns:svg="http://www.w3.org/2000/svg">
  <defs
     id="defs10" />
  <sodipodi:namedview
     id="namedview8"
     pagecolor="#505050"
     bordercolor="#eeeeee"
     borderopacity="1"
     inkscape:pageshadow="0"
     inkscape:pageopacity="0"
     inkscape:pagecheckerboard="0"
     showgrid="false"
     width="128px"
     inkscape:zoom="3.1107701"
     inkscape:cx="81.812539"
     inkscape:cy="100.45744"
     inkscape:window-width="1918"
     inkscape:window-height="1024"
     inkscape:window-x="0"
     inkscape:window-y="27"
     inkscape:window-maximized="1"
     inkscape:current-layer="svg6" />
  <path
     fill="#1793d1"
     d="m 63.987668,1.48e-4 c -5.69849,13.96726 -9.135142,23.10444 -15.47921,36.65732 3.889634,4.122246 8.66368,8.92228 16.417542,14.34467 C 56.590492,47.572332 50.905098,44.128652 46.654914,40.556346 38.535896,57.495132 25.814628,81.624742 0,128 c 20.290242,-11.70743 36.017526,-18.93214 50.675532,-21.68184 -0.629406,-2.7112 -0.986858,-5.63805 -0.962984,-8.688138 l 0.02388,-0.654696 c 0.322024,-12.993692 7.083634,-22.98736 15.094034,-22.308788 8.0104,0.67856 14.235064,11.772114 13.91151,24.765816 -0.05394,2.449316 -0.33127,4.798496 -0.816606,6.978236 C 92.423898,109.24503 107.98555,116.44663 128,128 c -3.94434,-7.26322 -7.47269,-13.81015 -10.83153,-20.04896 -5.30021,-4.1053 -10.82382,-9.450652 -22.102172,-15.235052 7.750012,2.01799 13.296742,4.336366 17.626262,6.932024 C 78.487748,35.975048 75.719772,27.515668 63.986902,0.003998 L 63.987668,0 Z"
     id="path4"
     sodipodi:nodetypes="ccccccccsccccccccc"
     style="fill:#ffffff;stroke-width:0.770299" />
</svg>
