<?xml version="1.0" encoding="UTF-8" standalone="no"?>
<!-- Created with Inkscape (http://www.inkscape.org/) -->

<svg
   width="24"
   height="24"
   viewBox="0 0 6.3500002 6.3500002"
   version="1.1"
   id="svg5"
   inkscape:version="1.1.2 (0a00cf5339, 2022-02-04)"
   sodipodi:docname="titlebar_icons.svg"
   inkscape:export-filename="/home/nenikitov/.config/awesome/neconfig/graphics/icons/maximize_inactive.png"
   inkscape:export-xdpi="96"
   inkscape:export-ydpi="96"
   xmlns:inkscape="http://www.inkscape.org/namespaces/inkscape"
   xmlns:sodipodi="http://sodipodi.sourceforge.net/DTD/sodipodi-0.dtd"
   xmlns="http://www.w3.org/2000/svg"
   xmlns:svg="http://www.w3.org/2000/svg">
  <sodipodi:namedview
     id="namedview7"
     pagecolor="#505050"
     bordercolor="#ffffff"
     borderopacity="1"
     inkscape:pageshadow="0"
     inkscape:pageopacity="0"
     inkscape:pagecheckerboard="1"
     inkscape:document-units="px"
     showgrid="true"
     units="px"
     width="44px"
     inkscape:zoom="23.157468"
     inkscape:cx="10.061549"
     inkscape:cy="15.20028"
     inkscape:window-width="1904"
     inkscape:window-height="1018"
     inkscape:window-x="6"
     inkscape:window-y="30"
     inkscape:window-maximized="0"
     inkscape:current-layer="g5116"
     inkscape:lockguides="false"
     borderlayer="false">
    <inkscape:grid
       type="xygrid"
       id="grid1071"
       color="#ffffff"
       opacity="0.2"
       empcolor="#ffffff"
       empopacity="0.4"
       enabled="true"
       dotted="false"
       empspacing="4"
       spacingx="0.26458334"
       originx="6.9600222e-08"
       originy="-5.0399779e-08" />
  </sodipodi:namedview>
  <defs
     id="defs2">
    <inkscape:path-effect
       effect="powerstroke"
       id="path-effect5247"
       is_visible="true"
       lpeversion="1"
       offset_points="0,4.99214"
       not_jump="false"
       sort_points="true"
       interpolator_type="CubicBezierJohan"
       interpolator_beta="0.2"
       start_linecap_type="zerowidth"
       linejoin_type="extrp_arc"
       miter_limit="4"
       scale_width="1"
       end_linecap_type="zerowidth" />
  </defs>
  <g
     inkscape:groupmode="layer"
     id="g5116"
     inkscape:label="sticky_inactive">
    <path
       id="path5114"
       style="fill:none;stroke:#ffffff;stroke-width:0.529166;stroke-linecap:round;stroke-linejoin:round;stroke-miterlimit:4;stroke-dasharray:none;stroke-opacity:1"
       d="M 5.8775304,2.5513392 5.2333798,2.779716 3.7986611,4.2144347 3.3828871,5.4617565 0.88824402,2.9671132 2.1355656,2.5513392 3.5922641,1.0946407 3.7986611,0.47246981 M 6.0854172,2.7592263 3.5907741,0.264583 M 0.26458298,6.0854174 2.1355656,4.2144347"
       sodipodi:nodetypes="cccccccccccc" />
  </g>
  <g
     inkscape:groupmode="layer"
     id="layer8"
     inkscape:label="sticky_active"
     style="display:none">
    <path
       id="path1032-6-7-5-3"
       style="fill:none;stroke:#ffffff;stroke-width:0.529166;stroke-linecap:round;stroke-linejoin:round;stroke-miterlimit:4;stroke-dasharray:none;stroke-opacity:1"
       d="M 4.4979168,0.26458334 4.2333334,0.81982789 V 2.6458334 l 0.5291667,1.0583334 h -3.175 l 0.5291666,-1.0583334 10e-8,-1.85397974 -0.2645834,-0.52727032 m 2.9104167,0 H 1.5875002 M 3.1750001,6.085417 V 3.7041668"
       sodipodi:nodetypes="cccccccccccc" />
  </g>
  <g
     inkscape:groupmode="layer"
     id="layer7"
     inkscape:label="floating_inactive"
     style="display:none">
    <rect
       style="fill:none;stroke:#ffffff;stroke-width:0.529167;stroke-linecap:round;stroke-linejoin:round;stroke-miterlimit:4;stroke-dasharray:none;stroke-opacity:1"
       id="rect9994"
       width="5.8208337"
       height="5.8208337"
       x="0.26458335"
       y="0.26458335"
       rx="0.79375005"
       ry="0.79375005" />
    <path
       style="fill:none;stroke:#ffffff;stroke-width:0.529167;stroke-linecap:butt;stroke-linejoin:miter;stroke-miterlimit:4;stroke-dasharray:none;stroke-opacity:1"
       d="m 3.1750001,6.0854171 c 0,-5.82083375 0,-5.82083375 0,-5.82083375 v 0"
       id="path10115" />
    <path
       style="fill:none;stroke:#ffffff;stroke-width:0.529167;stroke-linecap:butt;stroke-linejoin:miter;stroke-miterlimit:4;stroke-dasharray:none;stroke-opacity:1"
       d="m 3.175,3.1750001 c -2.91041663,0 -2.91041663,0 -2.91041663,0 v 0"
       id="path10115-7" />
    <path
       style="fill:none;stroke:#ffffff;stroke-width:0.529167;stroke-linecap:butt;stroke-linejoin:miter;stroke-miterlimit:4;stroke-dasharray:none;stroke-opacity:1"
       d="m 6.0854168,2.1166667 c -2.9104167,0 -2.9104167,0 -2.9104167,0 v 0"
       id="path10115-7-5" />
    <path
       style="fill:none;stroke:#ffffff;stroke-width:0.529167;stroke-linecap:butt;stroke-linejoin:miter;stroke-miterlimit:4;stroke-dasharray:none;stroke-opacity:1"
       d="m 6.0854168,4.2333335 c -2.9104167,0 -2.9104167,0 -2.9104167,0 v 0"
       id="path10115-7-5-9" />
  </g>
  <g
     inkscape:groupmode="layer"
     id="layer2"
     inkscape:label="floating_active"
     style="display:none">
    <path
       style="color:#000000;fill:none;stroke:#ffffff;stroke-width:0.529167;stroke-linecap:round;stroke-linejoin:round;stroke-miterlimit:4;stroke-dasharray:none;stroke-opacity:1"
       d="M 0.83984375,0.30664063 C 0.52603041,0.14885565 0.17701329,0.44643867 0.28320313,0.78125 L 1.0583334,3.1750001 0.28320313,5.5683594 C 0.17701338,5.9031707 0.52603045,6.2007536 0.83984375,6.0429687 L 5.8652344,3.5292969 c 0.2911662,-0.1466459 0.2911662,-0.5623385 0,-0.7089844 z"
       id="path9673-5"
       sodipodi:nodetypes="cccccccc" />
    <path
       style="fill:none;stroke:#ffffff;stroke-width:0.529167;stroke-linecap:round;stroke-linejoin:miter;stroke-miterlimit:4;stroke-dasharray:none;stroke-opacity:1"
       d="M 1.0583334,3.1750001 H 2.9104167"
       id="path7208" />
  </g>
  <g
     inkscape:groupmode="layer"
     id="layer1"
     inkscape:label="ontop_inactive"
     style="display:none">
    <rect
       style="fill:none;stroke:#ffffff;stroke-width:0.529167;stroke-linecap:round;stroke-linejoin:round"
       id="rect934"
       width="4.2333331"
       height="3.7041667"
       x="1.8520834"
       y="2.3812501"
       rx="0.79375005"
       ry="0.79375011" />
    <path
       id="rect934-6"
       style="fill:none;stroke:#ffffff;stroke-width:0.529167;stroke-linecap:round;stroke-linejoin:round"
       d="m 1.0583334,3.9687501 c -0.43973754,0 -0.79375004,-0.3540126 -0.79375004,-0.7937502 V 1.0583333 c 0,-0.43973757 0.3540125,-0.79375008 0.79375004,-0.79375008 l 2.6458334,10e-9 c 0.4397376,0 0.7937502,0.35401251 0.7937501,0.79375007 l -1e-7,0.5291667"
       sodipodi:nodetypes="csssssc" />
    <path
       style="fill:none;stroke:#ffffff;stroke-width:0.529167;stroke-linecap:round;stroke-linejoin:miter;stroke-miterlimit:4;stroke-dasharray:none;stroke-opacity:1"
       d="M 0.52916675,0.79375002 H 4.2333335 v 0"
       id="path12556" />
    <path
       style="display:inline;fill:none;stroke:#ffffff;stroke-width:0.529167;stroke-linecap:round;stroke-linejoin:miter;stroke-miterlimit:4;stroke-dasharray:none;stroke-opacity:1"
       d="M 0.79375001,0.52916669 H 3.9687501 v 0"
       id="path12556-9" />
  </g>
  <g
     inkscape:groupmode="layer"
     id="layer3"
     inkscape:label="ontop_active"
     style="display:none">
    <rect
       style="fill:none;stroke:#ffffff;stroke-width:0.529167;stroke-linecap:round;stroke-linejoin:round;stroke-miterlimit:4;stroke-dasharray:none;stroke-opacity:1;paint-order:normal"
       id="rect11461"
       width="5.8208337"
       height="3.1750002"
       x="0.26458335"
       y="0.26458335"
       rx="0.79375005"
       ry="0.79375005" />
    <path
       id="rect11461-1"
       style="fill:none;stroke:#ffffff;stroke-width:0.529167;stroke-linecap:round;stroke-linejoin:round"
       d="m 6.085417,3.9687501 c 0,0.4397375 -0.3540125,0.7937501 -0.79375,0.7937501 H 1.0583334 c -0.43973753,0 -0.79375005,-0.3540126 -0.79375005,-0.7937501"
       sodipodi:nodetypes="cssc" />
    <path
       id="rect11461-1-8"
       style="fill:none;stroke:#ffffff;stroke-width:0.529167;stroke-linecap:round;stroke-linejoin:round"
       d="m 6.0854168,5.2916668 c 0,0.4397375 -0.3540125,0.7937501 -0.79375,0.7937501 H 1.0583332 c -0.43973748,0 -0.79375008,-0.3540126 -0.79375008,-0.7937501"
       sodipodi:nodetypes="cssc" />
    <path
       style="display:inline;fill:none;stroke:#ffffff;stroke-width:0.529167;stroke-linecap:round;stroke-linejoin:miter;stroke-miterlimit:4;stroke-dasharray:none;stroke-opacity:1"
       d="M 0.52916689,0.79375002 H 5.8208335 v 0"
       id="path12556-7" />
    <path
       style="display:inline;fill:none;stroke:#ffffff;stroke-width:0.529167;stroke-linecap:round;stroke-linejoin:miter;stroke-miterlimit:4;stroke-dasharray:none;stroke-opacity:1"
       d="M 0.79375002,0.52916668 H 5.5562501 v 0"
       id="path12556-7-2" />
  </g>
  <g
     inkscape:groupmode="layer"
     id="layer4"
     inkscape:label="minimize"
     style="display:none">
    <path
       style="fill:none;stroke:#ffffff;stroke-width:0.529167;stroke-linecap:round;stroke-linejoin:miter;stroke-miterlimit:4;stroke-dasharray:none;stroke-opacity:1"
       d="M 0.26458334,3.1750001 H 6.0854168"
       id="path13710" />
  </g>
  <g
     inkscape:groupmode="layer"
     id="layer5"
     inkscape:label="maximize_inactive"
     style="display:none">
    <path
       id="rect13941"
       style="fill:none;stroke:#ffffff;stroke-width:0.529167;stroke-linecap:round;stroke-linejoin:round"
       d="m 4.7625001,0.26458334 0.5291669,10e-9 c 0.4397375,10e-9 0.7937501,0.35401252 0.79375,0.79375005 l -2e-7,0.5291666 m 0,3.1750001 2e-7,0.5291669 c 1e-7,0.4397375 -0.3540125,0.7937501 -0.79375,0.79375 l -0.5291669,-10e-8 m -3.1750001,0 -0.5291666,10e-8 c -0.43973753,1e-7 -0.79375004,-0.3540125 -0.79375005,-0.79375 l -10e-9,-0.5291669 m 0,-3.1750001 10e-9,-0.5291666 c 10e-9,-0.43973753 0.35401252,-0.79375004 0.79375005,-0.79375005 l 0.5291666,-10e-9"
       sodipodi:nodetypes="cssccssccssccssc" />
    <rect
       style="fill:none;stroke:#ffffff;stroke-width:0.529166;stroke-linecap:round;stroke-linejoin:round;stroke-miterlimit:4;stroke-dasharray:none;stroke-opacity:1;paint-order:normal"
       id="rect13943"
       width="3.1749997"
       height="3.1750002"
       x="1.5875"
       y="1.5875"
       rx="0.79375011"
       ry="0.79375005" />
    <path
       style="fill:none;stroke:#ffffff;stroke-width:0.529167;stroke-linecap:round;stroke-linejoin:miter;stroke-miterlimit:4;stroke-dasharray:none;stroke-opacity:1"
       d="M 1.8520834,2.1166667 H 4.4979168"
       id="path18837" />
    <path
       style="display:inline;fill:none;stroke:#ffffff;stroke-width:0.529167;stroke-linecap:round;stroke-linejoin:miter;stroke-miterlimit:4;stroke-dasharray:none;stroke-opacity:1"
       d="M 2.1166667,1.8520834 H 4.2333334"
       id="path18837-0" />
  </g>
  <g
     inkscape:groupmode="layer"
     id="g16843"
     inkscape:label="maximize_active"
     style="display:none">
    <path
       id="path16839"
       style="fill:none;stroke:#ffffff;stroke-width:0.529167;stroke-linecap:round;stroke-linejoin:round"
       d="m 1.0583333,3.9687502 h 0.5291669 c 0.2198688,0 0.4183063,0.088503 0.5617766,0.2319735 0.1434704,0.1434703 0.2319735,0.3419078 0.2319734,0.5617766 l -2e-7,0.5291666 m -1e-7,-3.7041667 2e-7,0.5291669 c 2e-7,0.4397375 -0.3540125,0.79375 -0.79375,0.79375 l -0.5291669,-1e-7 m 4.2333335,-10e-8 -0.5291666,10e-8 c -0.4397375,0 -0.79375,-0.3540125 -0.79375,-0.79375 V 1.5875 m 0,3.7041669 V 4.7625003 c 0,-0.4397375 0.3540125,-0.79375 0.7937501,-0.79375 h 0.5291666"
       sodipodi:nodetypes="ccscccssccssccssc" />
    <rect
       style="fill:none;stroke:#ffffff;stroke-width:0.529167;stroke-linecap:round;stroke-linejoin:round;stroke-miterlimit:4;stroke-dasharray:none;stroke-opacity:1;paint-order:normal"
       id="rect16841"
       width="5.8208337"
       height="5.8208337"
       x="0.26458335"
       y="0.26458335"
       rx="0.79375011"
       ry="0.79375005" />
    <path
       style="display:inline;fill:none;stroke:#ffffff;stroke-width:0.529166;stroke-linecap:round;stroke-linejoin:miter;stroke-miterlimit:4;stroke-dasharray:none;stroke-opacity:1"
       d="M 0.52916668,0.79375002 H 5.8208335"
       id="path19110-2" />
    <path
       style="display:inline;fill:none;stroke:#ffffff;stroke-width:0.529166;stroke-linecap:round;stroke-linejoin:miter;stroke-miterlimit:4;stroke-dasharray:none;stroke-opacity:1"
       d="M 0.79375002,0.52916668 H 5.5562502"
       id="path19110-2-3" />
  </g>
  <g
     inkscape:groupmode="layer"
     id="layer6"
     inkscape:label="close"
     style="display:none">
    <path
       style="fill:none;stroke:#ffffff;stroke-width:0.529167;stroke-linecap:round;stroke-linejoin:miter;stroke-miterlimit:4;stroke-dasharray:none;stroke-opacity:1"
       d="M 0.26458334,0.26458334 6.0854168,6.0854168"
       id="path19885" />
    <path
       style="fill:none;stroke:#ffffff;stroke-width:0.529167;stroke-linecap:round;stroke-linejoin:miter;stroke-miterlimit:4;stroke-dasharray:none;stroke-opacity:1"
       d="M 0.26458342,6.0854168 6.0854168,0.26458334"
       id="path19885-7" />
  </g>
</svg>
